<?xml version="1.0" encoding="utf-8"?>
<!-- Generator: Adobe Illustrator 16.0.0, SVG Export Plug-In . SVG Version: 6.00 Build 0)  -->
<!DOCTYPE svg PUBLIC "-//W3C//DTD SVG 1.1//EN" "http://www.w3.org/Graphics/SVG/1.1/DTD/svg11.dtd">
<svg version="1.1" id="Layer_1" xmlns="http://www.w3.org/2000/svg" xmlns:xlink="http://www.w3.org/1999/xlink" x="0px" y="0px"
	 width="200px" height="50px" viewBox="0 0 200 50" enable-background="new 0 0 200 50" xml:space="preserve">
<g>
	<path fill="#FF0606" d="M2.793,11.465h5.513v1.859H5.185v20.022h3.121v1.859H2.793V11.465z"/>
	<path fill="#FF0606" d="M14.534,13.584h11.428v2.211h-8.789v5.2h7.97v2.21h-7.97v9.791h-2.639V13.584z"/>
	<path fill="#FF0606" d="M35.544,18.083c2.02,0,3.564,0.654,4.635,1.963c1.071,1.309,1.606,3.203,1.606,5.682
		c0,2.488-0.533,4.385-1.599,5.688c-1.066,1.305-2.614,1.957-4.642,1.957c-2.02,0-3.562-0.652-4.629-1.957
		c-1.066-1.304-1.599-3.2-1.599-5.688c0-2.479,0.533-4.373,1.599-5.682C31.982,18.737,33.524,18.083,35.544,18.083z M35.544,20.111
		c-1.214,0-2.132,0.473-2.756,1.417c-0.625,0.944-0.937,2.345-0.937,4.199c0,1.847,0.312,3.244,0.937,4.193
		c0.624,0.949,1.542,1.424,2.756,1.424c1.222,0,2.145-0.475,2.769-1.424s0.936-2.347,0.936-4.193c0-1.854-0.312-3.255-0.936-4.199
		S36.766,20.111,35.544,20.111z"/>
	<path fill="#FF0606" d="M51.575,18.083c2.02,0,3.564,0.654,4.635,1.963c1.07,1.309,1.605,3.203,1.605,5.682
		c0,2.488-0.533,4.385-1.599,5.688c-1.066,1.305-2.613,1.957-4.642,1.957c-2.02,0-3.562-0.652-4.628-1.957
		c-1.066-1.304-1.599-3.2-1.599-5.688c0-2.479,0.533-4.373,1.599-5.682C48.013,18.737,49.556,18.083,51.575,18.083z M51.575,20.111
		c-1.213,0-2.132,0.473-2.756,1.417s-0.936,2.345-0.936,4.199c0,1.847,0.312,3.244,0.936,4.193s1.543,1.424,2.756,1.424
		c1.222,0,2.146-0.475,2.77-1.424s0.936-2.347,0.936-4.193c0-1.854-0.312-3.255-0.936-4.199S52.797,20.111,51.575,20.111z"/>
	<path fill="#FF0606" d="M70.753,20.293v-7.527h2.392v20.23h-2.392v-1.833c-0.399,0.719-0.93,1.268-1.593,1.645
		s-1.428,0.565-2.295,0.565c-1.76,0-3.144-0.683-4.154-2.048c-1.01-1.365-1.515-3.248-1.515-5.649c0-2.366,0.507-4.224,1.521-5.571
		s2.396-2.021,4.147-2.021c0.875,0,1.647,0.188,2.314,0.565S70.372,19.573,70.753,20.293z M63.719,25.728
		c0,1.855,0.295,3.255,0.884,4.2c0.589,0.944,1.46,1.417,2.613,1.417s2.03-0.477,2.633-1.43c0.603-0.954,0.904-2.35,0.904-4.188
		c0-1.846-0.301-3.243-0.904-4.192s-1.48-1.424-2.633-1.424s-2.024,0.473-2.613,1.417S63.719,23.873,63.719,25.728z"/>
	<path fill="#FF0606" d="M104.817,14.247v2.666c-0.798-0.512-1.598-0.897-2.399-1.157c-0.802-0.261-1.609-0.391-2.424-0.391
		c-1.24,0-2.219,0.288-2.938,0.865c-0.719,0.576-1.079,1.354-1.079,2.333c0,0.858,0.236,1.513,0.708,1.964
		c0.472,0.45,1.354,0.827,2.646,1.131l1.378,0.312c1.82,0.425,3.146,1.092,3.979,2.002s1.248,2.149,1.248,3.719
		c0,1.846-0.572,3.255-1.717,4.226c-1.144,0.971-2.808,1.456-4.992,1.456c-0.91,0-1.825-0.098-2.744-0.293
		c-0.918-0.194-1.842-0.487-2.769-0.877v-2.796c0.997,0.633,1.939,1.097,2.828,1.392c0.889,0.295,1.784,0.442,2.685,0.442
		c1.326,0,2.357-0.297,3.094-0.891c0.737-0.594,1.105-1.424,1.105-2.49c0-0.971-0.253-1.712-0.761-2.224
		c-0.507-0.512-1.389-0.905-2.646-1.183l-1.404-0.325c-1.803-0.407-3.112-1.023-3.926-1.847c-0.815-0.823-1.222-1.929-1.222-3.315
		c0-1.733,0.583-3.122,1.749-4.167c1.166-1.044,2.715-1.566,4.648-1.566c0.746,0,1.53,0.084,2.354,0.253
		C103.04,13.656,103.907,13.909,104.817,14.247z"/>
	<path fill="#FF0606" d="M118.846,28.315c-0.398,1.014-0.905,2.349-1.521,4.005c-0.858,2.288-1.435,3.684-1.729,4.187
		c-0.398,0.676-0.897,1.183-1.495,1.521c-0.599,0.339-1.296,0.508-2.094,0.508h-1.924v-2.003h1.417c0.702,0,1.253-0.203,1.651-0.61
		c0.398-0.408,0.905-1.461,1.521-3.16l-5.63-14.328h2.535l4.316,11.39l4.252-11.39h2.535L118.846,28.315z"/>
	<path fill="#FF0606" d="M137.387,23.973v9.023h-2.405v-9.023c0-1.309-0.23-2.271-0.689-2.887c-0.46-0.615-1.179-0.923-2.158-0.923
		c-1.118,0-1.979,0.396-2.581,1.189s-0.903,1.931-0.903,3.413v8.23h-2.393V18.434h2.393v2.185c0.425-0.832,1.001-1.463,1.729-1.892
		c0.728-0.429,1.59-0.644,2.587-0.644c1.482,0,2.59,0.487,3.322,1.463C137.021,20.521,137.387,21.996,137.387,23.973z"/>
	<path fill="#FF0606" d="M147.735,14.3v4.134h5.435v1.859h-5.435v7.905c0,1.075,0.204,1.825,0.611,2.249
		c0.407,0.425,1.118,0.638,2.132,0.638h2.691v1.911h-2.925c-1.794,0-3.06-0.359-3.797-1.079c-0.736-0.72-1.104-1.959-1.104-3.719
		v-7.905h-3.888v-1.859h3.888V14.3H147.735z"/>
	<path fill="#FF0606" d="M169.553,24.688v8.309h-2.405v-2.158c-0.512,0.866-1.155,1.506-1.931,1.918
		c-0.776,0.411-1.719,0.617-2.828,0.617c-1.482,0-2.665-0.418-3.55-1.255c-0.884-0.836-1.326-1.956-1.326-3.36
		c0-1.621,0.544-2.853,1.632-3.693s2.685-1.261,4.791-1.261h3.212v-0.377c-0.009-1.162-0.304-2.005-0.885-2.529
		c-0.58-0.524-1.508-0.786-2.782-0.786c-0.814,0-1.638,0.117-2.47,0.351c-0.832,0.234-1.643,0.577-2.432,1.027v-2.393
		c0.884-0.338,1.731-0.591,2.542-0.761c0.811-0.169,1.597-0.253,2.359-0.253c1.205,0,2.234,0.178,3.088,0.533
		s1.545,0.888,2.074,1.599c0.329,0.434,0.563,0.969,0.702,1.606C169.483,22.458,169.553,23.413,169.553,24.688z M164.911,25.676
		h-0.793c-1.396,0-2.447,0.245-3.153,0.734c-0.706,0.49-1.06,1.221-1.06,2.191c0,0.875,0.265,1.556,0.793,2.041
		s1.262,0.729,2.197,0.729c1.317,0,2.354-0.457,3.107-1.372c0.754-0.914,1.136-2.178,1.145-3.79v-0.533H164.911z"/>
	<path fill="#FF0606" d="M186.351,18.434l-5.214,6.969l5.721,7.594h-2.77l-4.264-5.838l-4.252,5.838h-2.77l5.721-7.594l-5.214-6.969
		h2.652l3.862,5.266l3.835-5.266H186.351z"/>
	<path fill="#FF0606" d="M197.207,11.465v23.741h-5.513v-1.859h3.12V13.324h-3.12v-1.859H197.207z"/>
</g>
</svg>
