<?xml version="1.0" encoding="utf-8"?>
<!-- Generator: Adobe Illustrator 16.0.0, SVG Export Plug-In . SVG Version: 6.00 Build 0)  -->
<!DOCTYPE svg PUBLIC "-//W3C//DTD SVG 1.1//EN" "http://www.w3.org/Graphics/SVG/1.1/DTD/svg11.dtd">
<svg version="1.1" id="Layer_1" xmlns="http://www.w3.org/2000/svg" xmlns:xlink="http://www.w3.org/1999/xlink" x="0px" y="0px"
	 width="200px" height="50px" viewBox="0 0 200 50" enable-background="new 0 0 200 50" xml:space="preserve">
<g>
	<path d="M11.439,31.242v1.6h-0.71c-1.843,0-3.078-0.274-3.704-0.822c-0.625-0.548-0.938-1.64-0.938-3.274v-2.222
		c0-0.807-0.228-1.503-0.683-2.087c-0.455-0.585-1.16-0.877-2.115-0.877H1.934v-1.588h1.354c1.044,0,1.771-0.248,2.182-0.744
		c0.412-0.496,0.617-1.225,0.617-2.188v-2.887c0-1.636,0.313-2.726,0.938-3.27c0.626-0.545,1.86-0.816,3.704-0.816h0.71v1.587
		h-0.777c-1.036,0-1.712,0.162-2.026,0.483c-0.315,0.323-0.473,1.009-0.473,2.06v2.976c0,1.303-0.255,2.178-0.766,2.625
		c-0.511,0.448-1.507,0.772-2.986,0.972c1.435,0.17,2.42,0.498,2.953,0.982c0.533,0.485,0.799,1.36,0.799,2.626V28.7
		c0,1.058,0.158,1.747,0.473,2.064c0.314,0.319,0.99,0.478,2.026,0.478H11.439z"/>
	<path d="M17.963,14.098h9.761v1.888h-7.506v4.441h6.806v1.888h-6.806v8.361h-2.254V14.098z"/>
	<path d="M37.613,17.94c1.725,0,3.044,0.559,3.958,1.677c0.915,1.118,1.372,2.735,1.372,4.853c0,2.125-0.455,3.745-1.367,4.857
		c-0.909,1.114-2.231,1.672-3.963,1.672c-1.725,0-3.042-0.558-3.953-1.672c-0.91-1.112-1.366-2.732-1.366-4.857
		c0-2.117,0.456-3.735,1.366-4.853C34.571,18.499,35.889,17.94,37.613,17.94z M37.613,19.672c-1.036,0-1.821,0.403-2.354,1.21
		c-0.533,0.807-0.799,2.002-0.799,3.586c0,1.577,0.267,2.77,0.799,3.582c0.533,0.811,1.318,1.215,2.354,1.215
		c1.044,0,1.832-0.404,2.365-1.215c0.533-0.812,0.799-2.005,0.799-3.582c0-1.584-0.267-2.78-0.799-3.586
		C39.445,20.076,38.657,19.672,37.613,19.672z"/>
	<path d="M53.01,17.94c1.725,0,3.044,0.559,3.958,1.677c0.915,1.118,1.372,2.735,1.372,4.853c0,2.125-0.455,3.745-1.366,4.857
		c-0.91,1.114-2.231,1.672-3.963,1.672c-1.725,0-3.042-0.558-3.953-1.672c-0.911-1.112-1.366-2.732-1.366-4.857
		c0-2.117,0.456-3.735,1.366-4.853S51.285,17.94,53.01,17.94z M53.01,19.672c-1.037,0-1.821,0.403-2.354,1.21
		c-0.533,0.807-0.8,2.002-0.8,3.586c0,1.577,0.267,2.77,0.8,3.582c0.533,0.811,1.317,1.215,2.354,1.215
		c1.043,0,1.832-0.404,2.364-1.215c0.533-0.812,0.8-2.005,0.8-3.582c0-1.584-0.267-2.78-0.8-3.586
		C54.841,20.076,54.053,19.672,53.01,19.672z"/>
	<path d="M71.093,19.828v-6.429h2.043v17.277h-2.043V29.11c-0.34,0.614-0.794,1.083-1.36,1.404c-0.567,0.321-1.22,0.483-1.959,0.483
		c-1.504,0-2.686-0.582-3.548-1.748c-0.863-1.167-1.293-2.774-1.293-4.825c0-2.021,0.433-3.607,1.299-4.758
		c0.866-1.15,2.046-1.727,3.542-1.727c0.747,0,1.405,0.162,1.976,0.483C70.319,18.746,70.767,19.213,71.093,19.828z M65.085,24.469
		c0,1.584,0.251,2.78,0.755,3.585c0.503,0.809,1.248,1.211,2.232,1.211s1.734-0.407,2.248-1.221
		c0.515-0.814,0.772-2.007,0.772-3.576c0-1.577-0.257-2.77-0.772-3.582c-0.514-0.81-1.264-1.215-2.248-1.215
		s-1.729,0.403-2.232,1.21C65.337,21.689,65.085,22.885,65.085,24.469z"/>
	<path d="M103.596,14.665v2.276c-0.681-0.437-1.364-0.766-2.047-0.988c-0.686-0.222-1.376-0.333-2.072-0.333
		c-1.059,0-1.895,0.246-2.508,0.738c-0.616,0.493-0.922,1.157-0.922,1.994c0,0.733,0.202,1.292,0.605,1.677
		c0.404,0.385,1.157,0.707,2.26,0.966l1.177,0.267c1.554,0.363,2.688,0.933,3.398,1.71c0.71,0.777,1.065,1.836,1.065,3.175
		c0,1.577-0.488,2.78-1.466,3.609c-0.977,0.829-2.398,1.243-4.264,1.243c-0.777,0-1.559-0.083-2.342-0.25
		c-0.786-0.165-1.574-0.416-2.366-0.749v-2.388c0.852,0.541,1.656,0.937,2.416,1.188c0.758,0.252,1.523,0.377,2.292,0.377
		c1.133,0,2.014-0.252,2.642-0.76c0.631-0.508,0.943-1.216,0.943-2.127c0-0.829-0.216-1.462-0.649-1.898
		c-0.432-0.437-1.186-0.774-2.258-1.011l-1.199-0.277c-1.541-0.348-2.659-0.874-3.354-1.577c-0.696-0.704-1.043-1.647-1.043-2.832
		c0-1.48,0.497-2.667,1.493-3.559c0.995-0.892,2.318-1.338,3.97-1.338c0.635,0,1.306,0.072,2.008,0.217
		C102.079,14.159,102.82,14.376,103.596,14.665z"/>
	<path d="M117.282,26.679c-0.341,0.867-0.774,2.007-1.299,3.42c-0.731,1.954-1.225,3.146-1.476,3.576
		c-0.341,0.577-0.766,1.011-1.278,1.299c-0.509,0.287-1.105,0.434-1.787,0.434H109.8v-1.711h1.209c0.601,0,1.07-0.174,1.411-0.521
		c0.341-0.349,0.771-1.247,1.299-2.698l-4.808-12.237h2.166l3.687,9.727l3.629-9.727h2.166L117.282,26.679z"/>
	<path d="M134.822,22.97v7.706h-2.054V22.97c0-1.118-0.197-1.939-0.59-2.465c-0.392-0.525-1.007-0.788-1.843-0.788
		c-0.956,0-1.689,0.339-2.203,1.016c-0.515,0.678-0.772,1.649-0.772,2.915v7.028h-2.043V18.24h2.043v1.866
		c0.361-0.711,0.854-1.249,1.477-1.616c0.621-0.366,1.357-0.549,2.21-0.549c1.265,0,2.212,0.417,2.836,1.25
		C134.509,20.022,134.822,21.282,134.822,22.97z"/>
	<path d="M145.367,14.709v3.531h4.641v1.588h-4.641v6.751c0,0.918,0.174,1.559,0.521,1.92c0.35,0.364,0.956,0.545,1.821,0.545h2.299
		v1.632h-2.498c-1.533,0-2.614-0.307-3.242-0.921c-0.63-0.614-0.943-1.673-0.943-3.176v-6.751h-3.32V18.24h3.32v-3.531H145.367z"/>
	<path d="M165.706,23.581v7.095h-2.057v-1.842c-0.436,0.74-0.985,1.285-1.647,1.637c-0.664,0.351-1.468,0.527-2.415,0.527
		c-1.267,0-2.275-0.356-3.031-1.071c-0.755-0.715-1.133-1.671-1.133-2.87c0-1.385,0.465-2.436,1.394-3.154
		c0.929-0.718,2.292-1.077,4.093-1.077h2.74v-0.322c-0.006-0.992-0.258-1.712-0.755-2.16c-0.495-0.448-1.288-0.672-2.375-0.672
		c-0.695,0-1.4,0.1-2.11,0.3c-0.711,0.2-1.402,0.492-2.075,0.877v-2.043c0.755-0.289,1.479-0.505,2.17-0.65
		c0.691-0.144,1.364-0.216,2.016-0.216c1.028,0,1.908,0.152,2.638,0.456c0.728,0.303,1.317,0.759,1.771,1.366
		c0.281,0.37,0.479,0.828,0.601,1.371C165.645,21.677,165.706,22.493,165.706,23.581z M161.74,24.425h-0.677
		c-1.193,0-2.09,0.209-2.692,0.627c-0.604,0.418-0.905,1.042-0.905,1.872c0,0.746,0.226,1.328,0.677,1.742
		c0.452,0.415,1.078,0.622,1.878,0.622c1.123,0,2.009-0.39,2.652-1.172c0.645-0.78,0.971-1.858,0.977-3.236v-0.455H161.74z"/>
	<path d="M181.757,18.24l-4.454,5.952l4.885,6.484h-2.364l-3.642-4.985l-3.632,4.985h-2.364l4.886-6.484l-4.452-5.952h2.265
		l3.298,4.497l3.275-4.497H181.757z"/>
	<path d="M187.947,31.242c1.036,0,1.713-0.158,2.028-0.478c0.312-0.317,0.472-1.007,0.472-2.064v-2.321
		c0-1.266,0.267-2.141,0.799-2.626c0.533-0.484,1.517-0.812,2.953-0.982c-1.48-0.2-2.477-0.524-2.986-0.972
		c-0.512-0.447-0.766-1.323-0.766-2.625v-2.976c0-1.051-0.159-1.737-0.472-2.06c-0.315-0.321-0.992-0.483-2.028-0.483h-0.776v-1.587
		h0.711c1.842,0,3.077,0.271,3.703,0.816c0.626,0.543,0.937,1.634,0.937,3.27v2.887c0,0.962,0.208,1.691,0.618,2.188
		c0.41,0.496,1.138,0.744,2.181,0.744h1.355v1.588h-1.355c-0.954,0-1.658,0.292-2.115,0.877c-0.455,0.584-0.684,1.28-0.684,2.087
		v2.222c0,1.635-0.311,2.727-0.937,3.274s-1.861,0.822-3.703,0.822h-0.711v-1.6H187.947z"/>
</g>
</svg>
